<?xml version="1.0" encoding="UTF-8"?>
<svg version="1.1" xmlns="http://www.w3.org/2000/svg" width="500" height="500">
<path d="M0 0 C18.81 0 37.62 0 57 0 C55.22625 8.415 53.4525 16.83 51.625 25.5 C50.790896 29.46290039 50.790896 29.46290039 49.93994141 33.50585938 C49.49393293 35.61851446 49.04781396 37.73114623 48.6015625 39.84375 C48.26064575 41.46651855 48.26064575 41.46651855 47.9128418 43.12207031 C46.71616229 48.78004362 45.44708454 54.4006688 44 60 C49.14820319 57.90669324 51.65556598 55.30855264 54.5 50.6875 C54.91596436 50.03869873 55.33192871 49.38989746 55.76049805 48.72143555 C57.18721751 46.48928905 58.59289101 44.24455315 60 42 C61.09875611 40.27247979 62.19908218 38.54595736 63.30078125 36.8203125 C64.15700073 35.47054321 64.15700073 35.47054321 65.03051758 34.09350586 C66.22839428 32.22406984 67.44344804 30.36554022 68.67456055 28.51782227 C71.76164854 23.83137508 74.34528852 19.39840909 76.34375 14.14453125 C78.87553407 8.14921254 81.07534498 3.18469544 87 0 C100.09959388 -3.06727663 114.74221079 -1.18283755 128 0 C123.49527376 7.88413257 118.76531546 15.5569357 113.75 23.125 C108.65199542 30.87817592 103.63160347 38.66155856 98.87890625 46.63208008 C96.71763355 50.24852787 94.49614191 53.76781061 92.06640625 57.2109375 C87.08732145 64.36752626 83.6352106 69.45401949 85.2421875 78.49609375 C85.49226563 79.65238281 85.74234375 80.80867188 86 82 C86.22203812 83.53098321 86.43222742 85.06371487 86.6328125 86.59765625 C86.85704187 88.21126343 87.08359353 89.82454966 87.3125 91.4375 C87.41715576 92.19530762 87.52181152 92.95311523 87.62963867 93.73388672 C88.44089489 98.70966514 89.91466018 101.8998225 93 106 C97.96171487 113.62537233 99.4167098 120.92125138 98 130 C97.49919922 130.43965088 96.99839844 130.87930176 96.48242188 131.33227539 C94.34187772 133.74038757 94.70101636 135.52879695 94.8125 138.6875 C94.83957031 139.68136719 94.86664063 140.67523438 94.89453125 141.69921875 C94.92933594 142.45847656 94.96414063 143.21773437 95 144 C90.19925701 146.30704268 85.39376033 148.60374471 80.58349609 150.89086914 C78.94671892 151.6708983 77.31129358 152.45377056 75.67724609 153.23950195 C73.33257333 154.36633832 70.98327965 155.48296716 68.6328125 156.59765625 C67.89942657 156.952798 67.16604065 157.30793976 66.41043091 157.67384338 C64.634331 158.51003775 62.8196826 159.26344917 61 160 C60.34 159.67 59.68 159.34 59 159 C58.30392456 156.81192017 58.30392456 156.81192017 57.67138672 153.88525391 C57.43128876 152.79387115 57.1911908 151.7024884 56.94381714 150.57803345 C56.69165436 149.38954803 56.43949158 148.20106262 56.1796875 146.9765625 C55.91616486 145.76431 55.65264221 144.5520575 55.38113403 143.30307007 C54.82414551 140.73308665 54.27039072 138.1626626 53.72216797 135.59082031 C52.88131086 131.64676534 52.0249802 127.70620211 51.16796875 123.765625 C50.62948307 121.27359411 50.09169925 118.78141143 49.5546875 116.2890625 C49.29847626 115.10462555 49.04226501 113.9201886 48.77828979 112.69985962 C48.54449615 111.60217255 48.31070251 110.50448547 48.06982422 109.37353516 C47.86267792 108.4061441 47.65553162 107.43875305 47.44210815 106.44204712 C47 104 47 104 47 101 C46.278125 100.7525 45.55625 100.505 44.8125 100.25 C41.75008733 98.8889277 39.57205542 97.12680885 37 95 C34.87887156 103.01022416 32.96769397 111.0544993 31.2109375 119.15234375 C31.05514725 119.87024078 30.89935699 120.58813782 30.73884583 121.32778931 C29.944306 124.99775918 29.15646688 128.66907409 28.37475586 132.34179688 C28.07930957 133.71615556 27.7838199 135.09050492 27.48828125 136.46484375 C27.22571533 137.698396 26.96314941 138.93194824 26.69262695 140.20288086 C26 143 26 143 25 144 C22.3337397 144.08855161 19.69352886 144.11524673 17.02734375 144.09765625 C16.22970108 144.0962413 15.43205841 144.09482635 14.61024475 144.09336853 C12.05262565 144.08775316 9.49509282 144.07519812 6.9375 144.0625 C5.20768355 144.05748698 3.47786574 144.05292373 1.74804688 144.04882812 C-2.50133553 144.03777875 -6.75065312 144.02050386 -11 144 C-10.44888206 136.79366643 -9.26352104 129.89332128 -7.68334961 122.84643555 C-7.44911789 121.78011398 -7.21488617 120.71379242 -6.97355652 119.61515808 C-6.46808862 117.31753911 -5.96001191 115.0204928 -5.44956779 112.72397423 C-4.64183265 109.08942212 -3.84121435 105.45336543 -3.04237366 101.81684875 C-1.4910818 94.76061621 0.06752509 87.70601185 1.62798309 80.65180206 C3.75326349 71.04413754 5.87488983 61.43568668 7.98657036 51.82502174 C8.77556027 48.2427872 9.57087758 44.6619955 10.36647034 41.08122253 C10.84886324 38.88974533 11.33097008 36.69820513 11.81274414 34.5065918 C12.14701416 33.01425018 12.14701416 33.01425018 12.48803711 31.49176025 C12.68853165 30.57378159 12.88902618 29.65580292 13.09559631 28.71000671 C13.27128175 27.91642604 13.44696718 27.12284536 13.62797642 26.30521679 C14.20773982 22.71275545 14.58001239 19.9947477 12.71484375 16.79589844 C11.83505859 15.71356934 11.83505859 15.71356934 10.9375 14.609375 C10.30585938 13.81789062 9.67421875 13.02640625 9.0234375 12.2109375 C8.35570312 11.39882812 7.68796875 10.58671875 7 9.75 C5.68577945 8.1211784 4.37318445 6.49104339 3.0625 4.859375 C2.47597656 4.14233398 1.88945312 3.42529297 1.28515625 2.68652344 C0 1 0 1 0 0 Z M38 68 C39 70 39 70 39 70 Z M34 75 C35 78 35 78 35 78 Z M35 78 C36 80 36 80 36 80 Z M36 80 C37 82 37 82 37 82 Z M92 122 C93 124 93 124 93 124 Z M93 125 C94 128 94 128 94 128 Z " fill="#1990C7" transform="translate(245,194)"/>
<path d="M0 0 C9.54467486 -0.11597769 19.08910626 -0.2047574 28.63433266 -0.25906086 C33.06685952 -0.28512727 37.49890342 -0.32047053 41.93115234 -0.37719727 C46.21057235 -0.43162369 50.48952857 -0.46144278 54.76926804 -0.47438622 C56.39996006 -0.48360714 58.03062741 -0.50161398 59.66112137 -0.52865028 C61.94992669 -0.56508453 64.2368291 -0.56993974 66.52587891 -0.56762695 C67.82715729 -0.57873001 69.12843567 -0.58983307 70.46914673 -0.60127258 C75.81080499 0.30836382 78.58189464 2.99986046 81.72265625 7.4296875 C82.16480469 8.23664063 82.60695313 9.04359375 83.0625 9.875 C84.82352605 13.01603855 86.60319395 15.8348382 88.875 18.625 C92.4706792 24.33578461 91.16559153 29.69428601 89.828125 36.01953125 C89.31036737 38.28576273 88.78393691 40.55002581 88.25 42.8125 C87.69437881 45.23155657 87.13969545 47.65082873 86.5859375 50.0703125 C86.31362305 51.25141602 86.04130859 52.43251953 85.76074219 53.64941406 C84.73883636 58.15025989 83.80048058 62.66604278 82.875 67.1875 C81.57466533 73.48157372 80.1058132 79.71002995 78.50170898 85.93310547 C76.95255475 92.01271909 75.69053058 98.142562 74.4296875 104.28735352 C73.40549774 109.22634733 72.19245221 114.05364814 70.78515625 118.8984375 C69.41765021 124.30042654 68.4406145 129.79162683 67.4453125 135.27319336 C67.20748047 136.53208374 67.20748047 136.53208374 66.96484375 137.81640625 C66.8268335 138.57381104 66.68882324 139.33121582 66.54663086 140.11157227 C66 142 66 142 64 144 C61.50985834 144.32111316 59.12645889 144.51785072 56.625 144.625 C55.85881348 144.66222168 55.09262695 144.69944336 54.30322266 144.73779297 C32.22480654 145.70743804 10.07642852 144.62112669 -12 144 C-10.62356433 134.89426346 -8.74496894 125.92400373 -6.74465942 116.94000244 C-6.17058061 114.36150591 -5.60038116 111.78217573 -5.03100586 109.20263672 C-3.93975325 104.26182614 -2.84495859 99.32180616 -1.74963379 94.38189697 C0.37823645 84.78222574 2.50163052 75.18156633 4.62162685 65.58015347 C5.34841427 62.28912588 6.07614958 58.99831359 6.80606079 55.70797729 C7.63163237 51.98540378 8.45470416 48.26228488 9.27734375 44.5390625 C9.52283966 43.43531784 9.76833557 42.33157318 10.02127075 41.19438171 C10.69629054 38.1326418 11.35293249 35.06775862 12 32 C12.22166336 30.97811584 12.44332672 29.95623169 12.67170715 28.90338135 C12.87060043 27.92576843 13.06949371 26.94815552 13.27441406 25.94091797 C13.45482239 25.07481903 13.63523071 24.20872009 13.82110596 23.31637573 C14.21386036 20.69285897 14.21386036 20.69285897 12.33203125 17.40625 C11.50058594 16.4471875 10.66914063 15.488125 9.8125 14.5 C8.58466797 13.03046875 8.58466797 13.03046875 7.33203125 11.53125 C5.99311987 10.07795925 4.62866929 8.64558457 3.19921875 7.28125 C2 6 2 6 2 4 C1.01 3.67 0.02 3.34 -1 3 C-0.67 2.01 -0.34 1.02 0 0 Z M51 29 C48.97425826 34.40197797 47.40685404 38.98929336 46.19067383 44.51416016 C46.03417862 45.21770126 45.87768341 45.92124237 45.71644592 46.64610291 C45.20735307 48.94248898 44.70686738 51.24064533 44.20703125 53.5390625 C43.8529323 55.15000704 43.49849029 56.7608762 43.14372253 58.37167358 C42.40451001 61.7345753 41.66960453 65.09838149 40.93774414 68.46289062 C40.00125 72.76636001 39.05374533 77.0673174 38.10298634 81.3676548 C37.37011963 84.68842826 36.6432234 88.01048693 35.91809654 91.33295822 C35.57110064 92.91933319 35.22223672 94.50530079 34.87143898 96.09083939 C34.38191976 98.30749301 33.90051414 100.52576181 33.42114258 102.74462891 C33.14595291 104.00401276 32.87076324 105.26339661 32.5872345 106.5609436 C31.83168167 110.40426058 31.83168167 110.40426058 32 116 C39.59 116 47.18 116 55 116 C56.9446625 110.81423333 58.47182785 106.54457275 59.59399414 101.26782227 C59.86760269 99.99612686 60.14121124 98.72443146 60.42311096 97.41419983 C60.71057739 96.04829346 60.99792285 94.68236164 61.28515625 93.31640625 C61.58941384 91.89196783 61.89422844 90.46764829 62.1995697 89.04344177 C62.99821202 85.31134604 63.78957082 81.57774375 64.57928467 77.84375 C65.38000799 74.06355107 66.18724157 70.28474401 66.99414062 66.50585938 C67.90350327 62.24593873 68.81227031 57.98590133 69.71583557 53.7247467 C69.98629196 52.44989914 70.25674835 51.17505157 70.53540039 49.86157227 C70.78718048 48.67081085 71.03896057 47.48004944 71.29837036 46.25320435 C71.90161692 43.45616697 72.54245537 40.67177767 73.19702148 37.88647461 C74.16861253 33.84532951 74.16861253 33.84532951 74 29 C66.41 29 58.82 29 51 29 Z " fill="#D8D9D9" transform="translate(165,193)"/>
<path d="M0 0 C0.66 0.33 1.32 0.66 2 1 C2.9642485 4.53766494 3.17464587 8.03819262 3.375 11.6875 C3.79248062 17.31385419 4.45710649 22.86377412 5.3125 28.4375 C5.41804199 29.19442139 5.52358398 29.95134277 5.63232422 30.73120117 C6.43692242 35.70944563 7.91440778 38.89948709 11 43 C15.96171487 50.62537233 17.4167098 57.92125138 16 67 C15.24879883 67.65947632 15.24879883 67.65947632 14.48242188 68.33227539 C12.34187772 70.74038757 12.70101636 72.52879695 12.8125 75.6875 C12.83957031 76.68136719 12.86664063 77.67523438 12.89453125 78.69921875 C12.94673828 79.83810547 12.94673828 79.83810547 13 81 C8.19925701 83.30704268 3.39376033 85.60374471 -1.41650391 87.89086914 C-3.05328108 88.6708983 -4.68870642 89.45377056 -6.32275391 90.23950195 C-8.66742667 91.36633832 -11.01672035 92.48296716 -13.3671875 93.59765625 C-14.10057343 93.952798 -14.83395935 94.30793976 -15.58956909 94.67384338 C-17.365669 95.51003775 -19.1803174 96.26344917 -21 97 C-21.66 96.67 -22.32 96.34 -23 96 C-23.68934631 93.82537842 -23.68934631 93.82537842 -24.31274414 90.91699219 C-24.54961441 89.83206482 -24.78648468 88.74713745 -25.03053284 87.6293335 C-25.27955856 86.44712219 -25.52858429 85.26491089 -25.78515625 84.046875 C-26.17688271 82.23561127 -26.17688271 82.23561127 -26.57652283 80.38775635 C-27.27105131 77.16872636 -27.95814659 73.94822447 -28.64178467 70.72686768 C-29.33625319 67.46368172 -30.04077944 64.20268704 -30.74414062 60.94140625 C-34.69520462 42.58669279 -34.69520462 42.58669279 -35.51145935 38.33746338 C-35.98196808 35.86167269 -35.98196808 35.86167269 -37 33 C-37.99 33.495 -37.99 33.495 -39 34 C-39 33.34 -39 32.68 -39 32 C-39.66 31.67 -40.32 31.34 -41 31 C-40.484375 30.0925 -39.96875 29.185 -39.4375 28.25 C-37.76123652 25.22210089 -37.76123652 25.22210089 -38.3125 22.625 C-38.539375 22.08875 -38.76625 21.5525 -39 21 C-39.66 21 -40.32 21 -41 21 C-40.34 18.36 -39.68 15.72 -39 13 C-39.66 12.67 -40.32 12.34 -41 12 C-37 12 -37 12 -34 14 C-28.70884284 13.86772107 -24.2875134 11.40820526 -19.59375 9.1875 C-17 8 -17 8 -14 7.0625 C-9.84401248 5.59058775 -6.19231435 3.36218337 -2.390625 1.14453125 C-1.60171875 0.76683594 -0.8128125 0.38914062 0 0 Z M10 59 C11 61 11 61 11 61 Z M11 62 C12 65 12 65 12 65 Z " fill="#1B98CD" transform="translate(327,257)"/>
<path d="M0 0 C1.94782484 0.04516648 3.8957495 0.08622731 5.84375 0.12304688 C10.60663458 0.22201382 15.36472529 0.37717052 20.125 0.5625 C15.62028714 8.44660916 10.89061191 16.11964667 5.875 23.6875 C0.7657865 31.45203952 -4.19899438 39.27712954 -8.99829102 47.23632812 C-13.39703061 54.49795082 -18.10208643 61.54290043 -22.875 68.5625 C-23.865 67.2425 -24.855 65.9225 -25.875 64.5625 C-26.56464844 64.96082031 -27.25429688 65.35914063 -27.96484375 65.76953125 C-33.10177559 68.66566155 -37.96412079 71.0979255 -43.6171875 72.76953125 C-46.26617369 73.69988453 -48.59839864 74.97011643 -51.0625 76.3125 C-54.25206941 77.95920793 -55.59025684 78.56777302 -59.25 78.5 C-61.61895442 77.65394485 -63.7201961 76.85538234 -65.875 75.5625 C-66.6175 75.211875 -67.36 74.86125 -68.125 74.5 C-70.69083634 71.65925262 -70.18091688 69.12713879 -70.015625 65.42578125 C-69.96921875 64.81089844 -69.9228125 64.19601562 -69.875 63.5625 C-69.35550781 63.30855469 -68.83601563 63.05460937 -68.30078125 62.79296875 C-67.60339844 62.44878906 -66.90601563 62.10460937 -66.1875 61.75 C-65.50300781 61.41355469 -64.81851562 61.07710937 -64.11328125 60.73046875 C-63.37464844 60.34503906 -62.63601563 59.95960938 -61.875 59.5625 C-61.07594238 59.14629395 -60.27688477 58.73008789 -59.45361328 58.30126953 C-56.53114566 56.33063761 -55.23467867 54.55546906 -53.37890625 51.57421875 C-52.74452637 50.56810547 -52.11014648 49.56199219 -51.45654297 48.52539062 C-50.79025879 47.44451172 -50.12397461 46.36363281 -49.4375 45.25 C-48.37513923 43.55788296 -47.31277037 41.86577086 -46.24969482 40.17410278 C-45.16327772 38.44173859 -44.08182092 36.7063642 -43.00146484 34.97021484 C-39.78769142 29.811027 -36.51629366 24.68852602 -33.25 19.5625 C-32.69513916 18.68682373 -32.14027832 17.81114746 -31.56860352 16.90893555 C-30.51411976 15.24690261 -29.43951493 13.59743037 -28.34326172 11.96264648 C-26.80037014 9.60445497 -26.80037014 9.60445497 -25.87939453 6.96118164 C-21.3982586 -3.19360237 -9.3622335 -0.37527608 0 0 Z " fill="#1990C6" transform="translate(352.875,193.4375)"/>
<path d="M0 0 C0.99 0.33 1.98 0.66 3 1 C2.67 3.64 2.34 6.28 2 9 C1.01 9 0.02 9 -1 9 C-1.268125 9.598125 -1.53625 10.19625 -1.8125 10.8125 C-2.99917406 12.99847854 -4.09599113 14.41332594 -6 16 C-6.66 16 -7.32 16 -8 16 C-8 16.66 -8 17.32 -8 18 C-13.27796101 22.59493076 -19.55592712 25.99520687 -25.6875 29.3125 C-26.30439697 29.64975098 -26.92129395 29.98700195 -27.55688477 30.33447266 C-31.65169369 32.49688143 -35.54142492 33.87247845 -40 35 C-40 35.66 -40 36.32 -40 37 C-36.79072218 35.56460211 -33.58275207 34.12630395 -30.375 32.6875 C-29.47136719 32.28337891 -28.56773437 31.87925781 -27.63671875 31.46289062 C-23.87632998 29.77483289 -20.15108886 28.07688447 -16.4765625 26.20703125 C-14 25 -14 25 -12 25 C-12 24.34 -12 23.68 -12 23 C-6.58823529 19 -6.58823529 19 -4 19 C-4 18.34 -4 17.68 -4 17 C-3.34 17 -2.68 17 -2 17 C-2 16.34 -2 15.68 -2 15 C-1.01 14.34 -0.02 13.68 1 13 C2.06246527 11.03247172 3.07137808 9.03412421 4 7 C4.66 7 5.32 7 6 7 C6.78553616 16.96758105 6.78553616 16.96758105 3.8125 20.875 C2.884375 21.57625 1.95625 22.2775 1 23 C0.21625 23.825 -0.5675 24.65 -1.375 25.5 C-9.25 33 -9.25 33 -14 33 C-14 33.66 -14 34.32 -14 35 C-16.69981565 36.37395963 -19.40769046 37.7239569 -22.125 39.0625 C-22.88554687 39.45244141 -23.64609375 39.84238281 -24.4296875 40.24414062 C-29.02023719 42.48005491 -31.89652549 43.58517011 -37 42 C-39.125 41.125 -39.125 41.125 -41 40 C-42.11375 39.4740625 -42.11375 39.4740625 -43.25 38.9375 C-45.81583634 36.09675262 -45.30591688 33.56463879 -45.140625 29.86328125 C-45.09421875 29.24839844 -45.0478125 28.63351562 -45 28 C-43.04739053 27.02369526 -41.09459966 26.04779004 -39.140625 25.07421875 C-37.46103032 24.23135645 -35.79108499 23.36926173 -34.125 22.5 C-31.49539019 21.23778729 -28.91388061 20.20831739 -26.1875 19.1875 C-21.63252478 17.42184596 -17.91532967 15.08448928 -14.0078125 12.171875 C-12 11 -12 11 -8 11 C-7.60167969 10.12601563 -7.60167969 10.12601563 -7.1953125 9.234375 C-5.96697004 6.93825772 -4.59685061 5.19643982 -2.875 3.25 C-2.33617187 2.63640625 -1.79734375 2.0228125 -1.2421875 1.390625 C-0.83226562 0.93171875 -0.42234375 0.4728125 0 0 Z " fill="#9CB9C7" transform="translate(328,229)"/>
<path d="M0 0 C1.67299959 0.65061095 3.33859237 1.32033324 5 2 C5.65226562 2.26425781 6.30453125 2.52851563 6.9765625 2.80078125 C9.48780557 4.28910485 10.55337103 5.86454388 12.125 8.3125 C12.62257813 9.07175781 13.12015625 9.83101563 13.6328125 10.61328125 C16.45263092 15.53587854 17.31399739 19.35875592 17.375 25.0625 C17.40335937 26.27035156 17.43171875 27.47820312 17.4609375 28.72265625 C16.91166003 32.62811214 15.84297842 33.42186177 13 36 C12.11030411 38.3307294 12.11030411 38.3307294 11.75 40.75 C11.60046875 41.54921875 11.4509375 42.3484375 11.296875 43.171875 C11.19890625 43.77515625 11.1009375 44.3784375 11 45 C9 44 9 44 8.18359375 42.07421875 C7.93738281 41.28660156 7.69117188 40.49898438 7.4375 39.6875 C7.18871094 38.90761719 6.93992187 38.12773437 6.68359375 37.32421875 C6.06651123 35.22613818 5.5108565 33.12613612 5 31 C8 32 8 32 9 34 C9.79953138 30.71303767 10.09658936 29.28976808 9 26 C8.01 26 7.02 26 6 26 C5.375 23.625 5.375 23.625 5 21 C5.66 20.34 6.32 19.68 7 19 C7.66 19.33 8.32 19.66 9 20 C7.92173635 18.72486237 6.83714481 17.45507431 5.75 16.1875 C5.14671875 15.47980469 4.5434375 14.77210938 3.921875 14.04296875 C2.07086459 11.94166684 2.07086459 11.94166684 -0.2109375 10.42578125 C-2 9 -2 9 -2.375 6 C-2 3 -2 3 0 0 Z M11 24 C12 26 12 26 12 26 Z M12 27 C13 30 13 30 13 30 Z " fill="#39CDF5" transform="translate(326,292)"/>
<path d="M0 0 C0.29648437 0.61617188 0.59296875 1.23234375 0.8984375 1.8671875 C1.96156895 4.0783294 1.96156895 4.0783294 3.625 6.125 C5 8 5 8 5 10 C5.66 10 6.32 10 7 10 C7.20086443 13.71599191 7.1519437 14.77208445 5 18 C5.66 18 6.32 18 7 18 C8.1875 20.1875 8.1875 20.1875 9 23 C7.625 25.8125 7.625 25.8125 6 28 C6.928125 28.309375 6.928125 28.309375 7.875 28.625 C10.84653645 30.54775888 11.13024659 32.66594527 12 36 C5.60701727 33.37723785 -1.10237108 28.77752299 -4.25390625 22.50390625 C-5.46019884 18.45556304 -5.93556683 13.87113365 -4 10 C-3.34 9.67 -2.68 9.34 -2 9 C-1.31270746 6.88153715 -1.31270746 6.88153715 -0.875 4.4375 C-0.70742188 3.61121094 -0.53984375 2.78492188 -0.3671875 1.93359375 C-0.24601562 1.29550781 -0.12484375 0.65742188 0 0 Z M-1 12 C0 14 0 14 0 14 Z M0 14 C1 16 1 16 1 16 Z " fill="#117DB5" transform="translate(281,260)"/>
<path d="M0 0 C0.66 0 1.32 0 2 0 C2.78553616 9.96758105 2.78553616 9.96758105 -0.1875 13.875 C-1.115625 14.57625 -2.04375 15.2775 -3 16 C-3.78375 16.825 -4.5675 17.65 -5.375 18.5 C-13.25 26 -13.25 26 -18 26 C-18 26.66 -18 27.32 -18 28 C-19.65 28.66 -21.3 29.32 -23 30 C-23 29.01 -23 28.02 -23 27 C-22.01 27 -21.02 27 -20 27 C-18.5678375 24.44256697 -17.87342315 22.40930802 -17.25 19.5 C-15.70543835 15.17522737 -14.00755538 14.08726843 -10 12 C-9.34 12 -8.68 12 -8 12 C-8 11.34 -8 10.68 -8 10 C-7.34 10 -6.68 10 -6 10 C-6 9.34 -6 8.68 -6 8 C-5.01 7.34 -4.02 6.68 -3 6 C-1.93753473 4.03247172 -0.92862192 2.03412421 0 0 Z " fill="#737D7C" transform="translate(332,236)"/>
<path d="M0 0 C0.99 0.33 1.98 0.66 3 1 C2.67 3.64 2.34 6.28 2 9 C1.01 9 0.02 9 -1 9 C-1.268125 9.598125 -1.53625 10.19625 -1.8125 10.8125 C-2.99917406 12.99847854 -4.09599113 14.41332594 -6 16 C-6.66 16 -7.32 16 -8 16 C-8 16.66 -8 17.32 -8 18 C-9.75 19.5078125 -9.75 19.5078125 -12 21.125 C-12.7425 21.66382813 -13.485 22.20265625 -14.25 22.7578125 C-14.8275 23.16773438 -15.405 23.57765625 -16 24 C-17.32 23.34 -18.64 22.68 -20 22 C-19.15642712 17.613421 -18.58732153 15.49794651 -15.125 12.5625 C-12 11 -12 11 -8 11 C-7.73445313 10.41734375 -7.46890625 9.8346875 -7.1953125 9.234375 C-5.96697004 6.93825772 -4.59685061 5.19643982 -2.875 3.25 C-2.33617187 2.63640625 -1.79734375 2.0228125 -1.2421875 1.390625 C-0.83226562 0.93171875 -0.42234375 0.4728125 0 0 Z " fill="#899298" transform="translate(328,229)"/>
<path d="M0 0 C9.65363128 3.75418994 9.65363128 3.75418994 12 8 C12.53382712 10.6794015 12.77233083 13.26796991 13 16 C12.34 16 11.68 16 11 16 C11 17.32 11 18.64 11 20 C10.34 20 9.68 20 9 20 C7.4140625 18.35546875 7.4140625 18.35546875 5.625 16.1875 C3.77019332 13.94457298 2.17061282 12.12190952 -0.203125 10.42578125 C-2 9 -2 9 -2.375 6 C-2 3 -2 3 0 0 Z " fill="#32C6F0" transform="translate(326,292)"/>
<path d="M0 0 C1.32 0.33 2.64 0.66 4 1 C4 2.98 4 4.96 4 7 C4.66 7 5.32 7 6 7 C6 7.66 6 8.32 6 9 C5.34 9 4.68 9 4 9 C3.7525 9.94875 3.505 10.8975 3.25 11.875 C2 15 2 15 -0.125 16.375 C-0.74375 16.58125 -1.3625 16.7875 -2 17 C-2 17.66 -2 18.32 -2 19 C-2.66 19 -3.32 19 -4 19 C-4 19.66 -4 20.32 -4 21 C-9.41176471 25 -9.41176471 25 -12 25 C-12 25.66 -12 26.32 -12 27 C-15.66393183 28.71383583 -19.33013651 30.42269839 -22.99853516 32.12695312 C-24.24656893 32.70761521 -25.49396929 33.28964069 -26.74072266 33.87304688 C-28.5312114 34.71060247 -30.3241663 35.54287966 -32.1171875 36.375 C-33.19597168 36.87773437 -34.27475586 37.38046875 -35.38623047 37.8984375 C-38 39 -38 39 -40 39 C-40 38.34 -40 37.68 -40 37 C-39.22305786 36.65388672 -39.22305786 36.65388672 -38.43041992 36.30078125 C-28.97590939 32.05354358 -20.06499357 27.94125071 -11.93359375 21.43359375 C-10 20 -10 20 -8 20 C-8 19.34 -8 18.68 -8 18 C-7.071875 17.87625 -7.071875 17.87625 -6.125 17.75 C-3.83911206 17.19416524 -3.83911206 17.19416524 -2.8125 15.0625 C-2.544375 14.381875 -2.27625 13.70125 -2 13 C-1.67 12.34 -1.34 11.68 -1 11 C-0.01 11 0.98 11 2 11 C2 8.36 2 5.72 2 3 C1.34 2.67 0.68 2.34 0 2 C0 1.34 0 0.68 0 0 Z " fill="#4B839F" transform="translate(328,227)"/>
<path d="M0 0 C1.30008893 2.60017785 1.41874518 5.16563255 1.74609375 8.0234375 C2.00898942 10.06997916 2.42221267 12.01901487 3 14 C-1.73699363 17.52237988 -6.35086937 19.34292168 -12 21 C-11.37330264 17.81974475 -10.27499852 15.58965293 -8.49609375 12.890625 C-8.00302734 12.13652344 -7.50996094 11.38242188 -7.00195312 10.60546875 C-6.22754883 9.43951172 -6.22754883 9.43951172 -5.4375 8.25 C-4.91736328 7.45722656 -4.39722656 6.66445312 -3.86132812 5.84765625 C-2.57920942 3.8950718 -1.29198226 1.94606613 0 0 Z " fill="#1790C7" transform="translate(309,230)"/>
<path d="M0 0 C1.71416077 0.00094672 3.42851019 0.03466732 5.14160156 0.09521484 C6.49816864 0.10794937 6.49816864 0.10794937 7.88214111 0.12094116 C10.76672213 0.1544915 13.64849277 0.22977159 16.53222656 0.30615234 C18.4892174 0.33624994 20.44625212 0.3636261 22.40332031 0.38818359 C27.19736958 0.45428803 31.98932188 0.55781948 36.78222656 0.68115234 C34.80222656 3.98115234 32.82222656 7.28115234 30.78222656 10.68115234 C29.44890561 8.01451044 30.11120623 6.51434931 30.78222656 3.68115234 C27.74009389 2.16008601 24.50175084 2.30685897 21.15722656 2.11865234 C20.45082031 2.07546875 19.74441406 2.03228516 19.01660156 1.98779297 C17.27204119 1.88170484 15.5271596 1.78092345 13.78222656 1.68115234 C14.11222656 2.67115234 14.44222656 3.66115234 14.78222656 4.68115234 C11.456879 5.78960153 9.16040081 5.52569591 5.78222656 4.68115234 C5.78222656 3.69115234 5.78222656 2.70115234 5.78222656 1.68115234 C2.81222656 1.68115234 -0.15777344 1.68115234 -3.21777344 1.68115234 C-3.25902344 2.40302734 -3.30027344 3.12490234 -3.34277344 3.86865234 C-4.60129509 7.91390051 -6.85366461 9.17596492 -10.21777344 11.68115234 C-6.24634651 0.42877605 -6.24634651 0.42877605 0 0 Z " fill="#258BBF" transform="translate(336.2177734375,193.31884765625)"/>
<path d="M0 0 C0.33 0 0.66 0 1 0 C2.73153647 16.20968479 2.73153647 16.20968479 -1 22 C-3.1875 24.4375 -3.1875 24.4375 -5 26 C-5.66 24.68 -6.32 23.36 -7 22 C-8.12148438 22.63228516 -8.12148438 22.63228516 -9.265625 23.27734375 C-10.25046875 23.82519531 -11.2353125 24.37304688 -12.25 24.9375 C-13.22453125 25.48277344 -14.1990625 26.02804687 -15.203125 26.58984375 C-17.53610409 27.76610835 -19.45350762 28.52101691 -22 29 C-21.34 28.67 -20.68 28.34 -20 28 C-20 27.34 -20 26.68 -20 26 C-19.40832031 25.69707031 -18.81664062 25.39414062 -18.20703125 25.08203125 C-13.38171083 22.52374554 -9.78352455 19.99972595 -6 16 C-4.66666667 15.33333333 -3.33333333 14.66666667 -2 14 C-0.99740493 10.99221479 -0.69685358 8.46179353 -0.4375 5.3125 C-0.35371094 4.31863281 -0.26992188 3.32476562 -0.18359375 2.30078125 C-0.09271484 1.16189453 -0.09271484 1.16189453 0 0 Z " fill="#258CBB" transform="translate(334,236)"/>
<path d="M0 0 C0.66 0.33 1.32 0.66 2 1 C0.87548273 3.9719385 -0.22293791 6.33440687 -2 9 C-2.99 9 -3.98 9 -5 9 C-5 9.99 -5 10.98 -5 12 C-11.46895075 13.34261242 -11.46895075 13.34261242 -13.9375 11.75 C-15 10 -15 10 -15 7 C-12.54595776 5.80283341 -10.08748321 4.6170654 -7.625 3.4375 C-6.57699219 2.92413086 -6.57699219 2.92413086 -5.5078125 2.40039062 C-3.69947784 1.53969288 -1.85148044 0.76347564 0 0 Z " fill="#90A3AB" transform="translate(314,254)"/>
<path d="M0 0 C-3.45218057 1.70030784 -6.91263989 3.38303052 -10.375 5.0625 C-11.35984375 5.54783203 -12.3446875 6.03316406 -13.359375 6.53320312 C-14.77089844 7.21479492 -14.77089844 7.21479492 -16.2109375 7.91015625 C-17.08024902 8.33433838 -17.94956055 8.75852051 -18.84521484 9.19555664 C-19.9118335 9.5937561 -19.9118335 9.5937561 -21 10 C-21.66 9.67 -22.32 9.34 -23 9 C-23.4140625 6.93359375 -23.4140625 6.93359375 -23.625 4.4375 C-23.69976562 3.61121094 -23.77453125 2.78492188 -23.8515625 1.93359375 C-23.90054687 1.29550781 -23.94953125 0.65742188 -24 0 C-21.69 0 -19.38 0 -17 0 C-17 0.66 -17 1.32 -17 2 C-14.03 2.495 -14.03 2.495 -11 3 C-11 2.34 -11 1.68 -11 1 C-3.375 -1.125 -3.375 -1.125 0 0 Z " fill="#1B8FC7" transform="translate(327,344)"/>
<path d="M0 0 C0.66 0.33 1.32 0.66 2 1 C1.67 1.33 1.34 1.66 1 2 C0.95936168 3.66617115 0.957279 5.33388095 1 7 C2.32 6.67 3.64 6.34 5 6 C1.97569186 9.25694723 -1.17874747 11.72350913 -5 14 C-5.99 14 -6.98 14 -8 14 C-8 14.66 -8 15.32 -8 16 C-9.65 16.66 -11.3 17.32 -13 18 C-13 17.01 -13 16.02 -13 15 C-12.01 15 -11.02 15 -10 15 C-8.5678375 12.44256697 -7.87342315 10.40930802 -7.25 7.5 C-5.71482349 3.20150576 -3.93426479 2.13818739 0 0 Z " fill="#87878B" transform="translate(322,248)"/>
<path d="M0 0 C1 2 1 2 0.5 3.9375 C-0.23602403 6.17665424 -0.23602403 6.17665424 1 9 C-2.72965139 11.03435531 -4.66905042 12 -9 12 C-9 10.68 -9 9.36 -9 8 C-10.32 7.67 -11.64 7.34 -13 7 C-11.59654131 4.19308262 -9.95890933 4.03040625 -7.0625 2.9375 C-3.47975239 1.58576094 -3.47975239 1.58576094 0 0 Z " fill="#97A3A9" transform="translate(309,245)"/>
<path d="M0 0 C0.99 0.33 1.98 0.66 3 1 C2.67 3.64 2.34 6.28 2 9 C1.01 9 0.02 9 -1 9 C-1.268125 9.598125 -1.53625 10.19625 -1.8125 10.8125 C-2.99917406 12.99847854 -4.09599113 14.41332594 -6 16 C-6.66 16 -7.32 16 -8 16 C-8.4375 12.9375 -8.4375 12.9375 -8 9 C-6.37020217 6.9105156 -4.61361489 5.23262567 -2.62890625 3.48046875 C-0.88827578 2.07747274 -0.88827578 2.07747274 0 0 Z " fill="#6C7074" transform="translate(328,229)"/>
<path d="M0 0 C18.81 0 37.62 0 57 0 C56.67 1.98 56.34 3.96 56 6 C55.67 6 55.34 6 55 6 C55 4.35 55 2.7 55 1 C38.5 1.33 22 1.66 5 2 C4.67 3.32 4.34 4.64 4 6 C2.68 4.02 1.36 2.04 0 0 Z " fill="#2F8BB4" transform="translate(245,194)"/>
<path d="M0 0 C-0.66 0 -1.32 0 -2 0 C-2 0.66 -2 1.32 -2 2 C-5.66393183 3.71383583 -9.33013651 5.42269839 -12.99853516 7.12695312 C-14.24656893 7.70761521 -15.49396929 8.28964069 -16.74072266 8.87304688 C-18.5312114 9.71060247 -20.3241663 10.54287966 -22.1171875 11.375 C-23.19597168 11.87773437 -24.27475586 12.38046875 -25.38623047 12.8984375 C-28 14 -28 14 -30 14 C-30 13.34 -30 12.68 -30 12 C-29.19949219 11.62246582 -29.19949219 11.62246582 -28.3828125 11.23730469 C-25.92142883 10.07581265 -23.46071201 8.91291427 -21 7.75 C-20.16082031 7.35425781 -19.32164062 6.95851563 -18.45703125 6.55078125 C-17.62558594 6.15761719 -16.79414063 5.76445312 -15.9375 5.359375 C-14.69613281 4.77446289 -14.69613281 4.77446289 -13.4296875 4.17773438 C-11.10827827 3.05248536 -8.83964153 1.85218107 -6.5625 0.640625 C-3 -1 -3 -1 0 0 Z " fill="#438BAC" transform="translate(318,252)"/>
<path d="M0 0 C0.66 0.99 1.32 1.98 2 3 C-1.54015475 5.15863095 -3.55344637 6.01488512 -7.75 5.875 C-11 5 -11 5 -13 2 C-8.24008398 -0.37995801 -5.31092444 -1.72913819 0 0 Z " fill="#A7B2B8" transform="translate(303,265)"/>
<path d="M0 0 C0.33 0 0.66 0 1 0 C1.73965351 4.35844156 2.46979504 8.7183377 3.19116211 13.07983398 C3.4379 14.56334354 3.68723232 16.04642401 3.93920898 17.52905273 C4.30094372 19.66021973 4.65332072 21.79275552 5.00390625 23.92578125 C5.21861572 25.20880127 5.4333252 26.49182129 5.65454102 27.8137207 C6 31 6 31 5 34 C4.54625 32.80375 4.0925 31.6075 3.625 30.375 C3.36976563 29.70210938 3.11453125 29.02921875 2.8515625 28.3359375 C2.57054687 27.56507813 2.28953125 26.79421875 2 26 C1.45859375 24.700625 1.45859375 24.700625 0.90625 23.375 C-0.3356471 18.7500039 -0.2133366 14.38838121 -0.125 9.625 C-0.11597656 8.69816406 -0.10695313 7.77132813 -0.09765625 6.81640625 C-0.07422937 4.54399923 -0.04142748 2.2721382 0 0 Z " fill="#2B8CBB" transform="translate(328,263)"/>
<path d="M0 0 C1.98 0.99 1.98 0.99 4 2 C3.979375 3.175625 3.95875 4.35125 3.9375 5.5625 C3.93052739 9.47413467 4.35749657 13.14497944 5 17 C6.32 17.33 7.64 17.66 9 18 C8.39816251 20.02045442 7.72693904 22.02111039 7 24 C6.34 24.33 5.68 24.66 5 25 C3.35 16.75 1.7 8.5 0 0 Z M4 8 C4.99 8.495 4.99 8.495 6 9 C5.01 9.495 5.01 9.495 4 10 C4 9.34 4 8.68 4 8 Z " fill="#2E8DB6" transform="translate(292,296)"/>
<path d="M0 0 C0.33 0 0.66 0 1 0 C1.02689216 1.47906892 1.04634621 2.95827483 1.0625 4.4375 C1.07410156 5.26121094 1.08570313 6.08492188 1.09765625 6.93359375 C1 9 1 9 0 10 C-0.20699563 11.49496842 -0.36679259 12.9966592 -0.5 14.5 C-0.88888889 18.88888889 -0.88888889 18.88888889 -2 20 C-2.20604085 21.32781878 -2.3662959 22.66295895 -2.5 24 C-2.88888889 27.88888889 -2.88888889 27.88888889 -4 29 C-4.36760731 31.32817964 -4.70241581 33.6618385 -5 36 C-5.66 36 -6.32 36 -7 36 C-6.33015012 28.13986276 -4.69766584 20.61933744 -2.9375 12.9375 C-2.65583984 11.69033203 -2.37417969 10.44316406 -2.08398438 9.15820312 C-1.39367318 6.10445361 -0.69891018 3.0517908 0 0 Z " fill="#378FB6" transform="translate(248,269)"/>
<path d="M0 0 C0.66 0.33 1.32 0.66 2 1 C-1.86554857 5.67087119 -6.44522044 7.50825549 -12.34375 8.32421875 C-16.52667236 8.52639333 -18.47167906 8.34502592 -22.0625 6 C-22.701875 5.34 -23.34125 4.68 -24 4 C-20 4 -20 4 -17 6 C-11.61045016 5.86526125 -7.12865206 3.30406017 -2.390625 0.9609375 C-1.60171875 0.64382813 -0.8128125 0.32671875 0 0 Z " fill="#308FB9" transform="translate(310,265)"/>
<path d="M0 0 C0.33 0.99 0.66 1.98 1 3 C1.66 3 2.32 3 3 3 C2.85879286 4.93784265 2.71187127 6.87526955 2.5625 8.8125 C2.48128906 9.89144531 2.40007812 10.97039062 2.31640625 12.08203125 C2 15 2 15 1 18 C0.34 18 -0.32 18 -1 18 C-1 13.38 -1 8.76 -1 4 C-1.66 4 -2.32 4 -3 4 C-3 3.34 -3 2.68 -3 2 C-2.01 1.34 -1.02 0.68 0 0 Z " fill="#D9E2E5" transform="translate(253,214)"/>
<path d="M0 0 C1.15172095 3.45516285 0.79718066 4.82220244 0.00390625 8.32421875 C-0.22490234 9.35224609 -0.45371094 10.38027344 -0.68945312 11.43945312 C-0.93630859 12.51130859 -1.18316406 13.58316406 -1.4375 14.6875 C-1.68048828 15.77095703 -1.92347656 16.85441406 -2.17382812 17.97070312 C-2.77551699 20.64880847 -3.38450297 23.32504042 -4 26 C-4.33 26 -4.66 26 -5 26 C-4.98839844 25.40832031 -4.97679687 24.81664062 -4.96484375 24.20703125 C-4.87525665 19.17652034 -4.87525665 19.17652034 -5.75 14.25 C-6 12 -6 12 -4.1875 9.625 C-3.465625 8.75875 -2.74375 7.8925 -2 7 C-1.1143131 4.68172664 -0.57051498 2.42468866 0 0 Z " fill="#2A8BB6" transform="translate(298,206)"/>
<path d="M0 0 C0.66 0.33 1.32 0.66 2 1 C0.35 8.59 -1.3 16.18 -3 24 C-3.33 24 -3.66 24 -4 24 C-4 20.7 -4 17.4 -4 14 C-3.34 14 -2.68 14 -2 14 C-2.33 10.37 -2.66 6.74 -3 3 C-2.01 3 -1.02 3 0 3 C0 2.01 0 1.02 0 0 Z " fill="#328AB3" transform="translate(279,290)"/>
<path d="M0 0 C1.64869666 2.96765398 2.56734434 5.62528585 3 9 C2.67 9.99 2.34 10.98 2 12 C2.87483915 14.16715557 2.87483915 14.16715557 4 16 C3.01 16 2.02 16 1 16 C-1.94151148 9.6644368 -2.24576669 6.61910181 0 0 Z " fill="#1075AC" transform="translate(281,260)"/>
<path d="M0 0 C0.33 0 0.66 0 1 0 C1 5.28 1 10.56 1 16 C0.34 16.33 -0.32 16.66 -1 17 C-1 18.98 -1 20.96 -1 23 C-1.99 23 -2.98 23 -4 23 C-3.48400816 15.1177798 -1.9078547 7.65541695 0 0 Z " fill="#348DB6" transform="translate(253,246)"/>
<path d="M0 0 C1.32 0.66 2.64 1.32 4 2 C3.34 3.98 2.68 5.96 2 8 C2.99 8.99 3.98 9.98 5 11 C4.34 11.66 3.68 12.32 3 13 C0.5 11.375 0.5 11.375 -2 9 C-2.58763244 4.8865729 -2.33043558 3.49565336 0 0 Z " fill="#29BDE7" transform="translate(326,292)"/>
<path d="M0 0 C0.66 0.33 1.32 0.66 2 1 C0.40207898 2.17520646 -1.20356908 3.33991247 -2.8125 4.5 C-4.15248047 5.47453125 -4.15248047 5.47453125 -5.51953125 6.46875 C-8 8 -8 8 -11 8 C-11 8.66 -11 9.32 -11 10 C-12.65 10.66 -14.3 11.32 -16 12 C-16 11.01 -16 10.02 -16 9 C-15.01 9 -14.02 9 -13 9 C-12.7628125 8.38511719 -12.525625 7.77023437 -12.28125 7.13671875 C-10.67694172 4.46124122 -9.36723657 3.95287818 -6.5 2.8125 C-5.30890625 2.32716797 -5.30890625 2.32716797 -4.09375 1.83203125 C-3.4028125 1.55746094 -2.711875 1.28289062 -2 1 C-1.34 0.67 -0.68 0.34 0 0 Z " fill="#71919E" transform="translate(325,254)"/>
<path d="M0 0 C0.99 0.33 1.98 0.66 3 1 C2.6875 3.875 2.6875 3.875 2 7 C-1 9 -1 9 -3.6875 8.625 C-4.450625 8.41875 -5.21375 8.2125 -6 8 C-6 7.01 -6 6.02 -6 5 C-5.195625 4.731875 -4.39125 4.46375 -3.5625 4.1875 C-2.716875 3.795625 -1.87125 3.40375 -1 3 C-0.67 2.01 -0.34 1.02 0 0 Z " fill="#818585" transform="translate(318,240)"/>
<path d="M0 0 C0.33 0 0.66 0 1 0 C1.02688151 1.64574566 1.04634123 3.29161413 1.0625 4.9375 C1.07410156 5.85402344 1.08570313 6.77054687 1.09765625 7.71484375 C1 10 1 10 0 11 C-0.23287008 12.68183948 -0.41264166 14.3712416 -0.5625 16.0625 C-0.68818359 17.44115234 -0.68818359 17.44115234 -0.81640625 18.84765625 C-0.87699219 19.55792969 -0.93757812 20.26820313 -1 21 C-1.66 21 -2.32 21 -3 21 C-3.33 21.66 -3.66 22.32 -4 23 C-3.32545897 15.1753241 -1.73123042 7.65443386 0 0 Z " fill="#398EB7" transform="translate(240,305)"/>
<path d="M0 0 C1.33332095 2.6666419 0.67102033 4.16680303 0 7 C-1.32 7.33 -2.64 7.66 -4 8 C-3.505 8.45375 -3.01 8.9075 -2.5 9.375 C-1 11 -1 11 -1 13 C-3.31 13.33 -5.62 13.66 -8 14 C-6.6744419 10.37723685 -5.05653045 7.36494652 -2.875 4.1875 C-2.33617187 3.39730469 -1.79734375 2.60710937 -1.2421875 1.79296875 C-0.83226562 1.20128906 -0.42234375 0.60960937 0 0 Z " fill="#288AB4" transform="translate(318,216)"/>
<path d="M0 0 C-5.75 3 -5.75 3 -8 3 C-8.33 2.67 -8.66 2.34 -9 2 C-9.66 1.67 -10.32 1.34 -11 1 C-11.33 0.01 -11.66 -0.98 -12 -2 C-7.26382227 -3.57872591 -4.10216206 -2.73477471 0 0 Z " fill="#208EBF" transform="translate(335,340)"/>
<path d="M0 0 C1.60031344 3.20062687 0.03173691 5.72271806 -1 9 C-1.99 9 -2.98 9 -4 9 C-4.33 10.65 -4.66 12.3 -5 14 C-5.99 14 -6.98 14 -8 14 C-6.6744419 10.37723685 -5.05653045 7.36494652 -2.875 4.1875 C-2.33617187 3.39730469 -1.79734375 2.60710937 -1.2421875 1.79296875 C-0.83226562 1.20128906 -0.42234375 0.60960937 0 0 Z " fill="#2989B8" transform="translate(309,230)"/>
<path d="M0 0 C-4.73699363 3.52237988 -9.35086937 5.34292168 -15 7 C-14.30621489 3.73988358 -13.54106009 2.20961747 -11 0 C-11 0.99 -11 1.98 -11 3 C-10.01 3 -9.02 3 -8 3 C-8 2.34 -8 1.68 -8 1 C-3.375 -1.125 -3.375 -1.125 0 0 Z " fill="#338FB4" transform="translate(312,244)"/>
<path d="M0 0 C2.25140288 0.09648869 4.50237987 0.21273865 6.75 0.375 C6.75 0.705 6.75 1.035 6.75 1.375 C2.46 1.375 -1.83 1.375 -6.25 1.375 C-6.58 3.025 -6.91 4.675 -7.25 6.375 C-9.056087 8.40121949 -11.05417159 9.73980863 -13.25 11.375 C-12.6525696 9.68228055 -11.96573527 8.02119113 -11.25 6.375 C-10.8375 5.281875 -10.425 4.18875 -10 3.0625 C-6.46193462 -0.3951548 -4.84954007 -0.00488865 0 0 Z " fill="#2B85B8" transform="translate(339.25,193.625)"/>
<path d="M0 0 C1.32 0.33 2.64 0.66 4 1 C4 1.99 4 2.98 4 4 C4.66 4.33 5.32 4.66 6 5 C3.04335481 6.4783226 0.25770263 6.06032783 -3 6 C-3 5.01 -3 4.02 -3 3 C-2.34 3 -1.68 3 -1 3 C-0.67 2.01 -0.34 1.02 0 0 Z " fill="#BAC0C2" transform="translate(288,257)"/>
<path d="M0 0 C0 3 0 3 -0.5625 5.0625 C-1.23013503 7.0674281 -1.23013503 7.0674281 0 9 C-1.375 10.5 -1.375 10.5 -3 12 C-3.66 12 -4.32 12 -5 12 C-5.3125 8.8125 -5.3125 8.8125 -5 5 C-2.5 2.0625 -2.5 2.0625 0 0 Z " fill="#6A7B84" transform="translate(325,233)"/>
<path d="M0 0 C0.99 0.33 1.98 0.66 3 1 C2.55088303 3.29349068 2.09042056 5.58476218 1.625 7.875 C1.36976563 9.15117187 1.11453125 10.42734375 0.8515625 11.7421875 C0 15 0 15 -2 17 C-1.85899143 14.72886197 -1.71203245 12.45809275 -1.5625 10.1875 C-1.48128906 8.92292969 -1.40007812 7.65835938 -1.31640625 6.35546875 C-1 3 -1 3 0 0 Z " fill="#DDE7E7" transform="translate(249,238)"/>
<path d="M0 0 C0.33 0 0.66 0 1 0 C1.0810206 2.10353495 1.13919907 4.20795952 1.1875 6.3125 C1.22230469 7.48425781 1.25710938 8.65601563 1.29296875 9.86328125 C1 13 1 13 -0.51171875 14.91796875 C-1.00285156 15.27503906 -1.49398438 15.63210938 -2 16 C-1.85975781 13.52039864 -1.7130815 11.04147598 -1.5625 8.5625 C-1.52318359 7.85544922 -1.48386719 7.14839844 -1.44335938 6.41992188 C-1.11328125 1.11328125 -1.11328125 1.11328125 0 0 Z " fill="#62C6E6" transform="translate(342,311)"/>
<path d="M0 0 C0.33 0.66 0.66 1.32 1 2 C0.67 2.66 0.34 3.32 0 4 C-1.65 4 -3.3 4 -5 4 C-5 4.99 -5 5.98 -5 7 C-7.64 7 -10.28 7 -13 7 C-11.59654131 4.19308262 -9.95890933 4.03040625 -7.0625 2.9375 C-3.47975239 1.58576094 -3.47975239 1.58576094 0 0 Z " fill="#88A1AE" transform="translate(309,245)"/>
<path d="M0 0 C0.66 0 1.32 0 2 0 C2 1.98 2 3.96 2 6 C1.34 6 0.68 6 0 6 C-0.33 7.32 -0.66 8.64 -1 10 C-1.99 10 -2.98 10 -4 10 C-4 9.01 -4 8.02 -4 7 C-3.34 7 -2.68 7 -2 7 C-1.855625 6.030625 -1.71125 5.06125 -1.5625 4.0625 C-1 1 -1 1 0 0 Z " fill="#67716F" transform="translate(331,238)"/>
<path d="M0 0 C1.33333333 0.66666667 2.66666667 1.33333333 4 2 C3.34 3.98 2.68 5.96 2 8 C1.34 8 0.68 8 0 8 C-3 3.61538462 -3 3.61538462 -3 1 C-2.01 0.67 -1.02 0.34 0 0 Z " fill="#168FC7" transform="translate(293,288)"/>
<path d="M0 0 C-2 2 -2 2 -4.4375 2.3125 C-7 2 -7 2 -8.8125 0.625 C-10 -1 -10 -1 -10 -3 C-5.69563697 -4.98662909 -3.48674022 -2.61505516 0 0 Z " fill="#A2AAA9" transform="translate(309,265)"/>
<path d="M0 0 C0.66 0.33 1.32 0.66 2 1 C0.87548273 3.9719385 -0.22293791 6.33440687 -2 9 C-3.32 8.34 -4.64 7.68 -6 7 C-5.34 5.68 -4.68 4.36 -4 3 C-3.01 3 -2.02 3 -1 3 C-0.67 2.01 -0.34 1.02 0 0 Z " fill="#959696" transform="translate(314,254)"/>
<path d="M0 0 C1.32 0.33 2.64 0.66 4 1 C4 2.98 4 4.96 4 7 C4.66 7 5.32 7 6 7 C6 7.66 6 8.32 6 9 C5.34 9 4.68 9 4 9 C3.34 10.65 2.68 12.3 2 14 C1.34 14 0.68 14 0 14 C0 13.01 0 12.02 0 11 C0.66 11 1.32 11 2 11 C2 8.36 2 5.72 2 3 C1.34 2.67 0.68 2.34 0 2 C0 1.34 0 0.68 0 0 Z " fill="#3484A7" transform="translate(328,227)"/>
<path d="M0 0 C1.32 0 2.64 0 4 0 C2.6744419 3.62276315 1.05653045 6.63505348 -1.125 9.8125 C-1.66382813 10.60269531 -2.20265625 11.39289063 -2.7578125 12.20703125 C-3.37269531 13.09455078 -3.37269531 13.09455078 -4 14 C-4.33 13.01 -4.66 12.02 -5 11 C-4.38125 10.236875 -3.7625 9.47375 -3.125 8.6875 C-0.74944422 5.68312063 -0.34956509 3.75782476 0 0 Z " fill="#2E89B3" transform="translate(348,226)"/>
<path d="M0 0 C2.475 0.99 2.475 0.99 5 2 C5 3.65 5 5.3 5 7 C3.125 7.625 3.125 7.625 1 8 C0.34 7.34 -0.32 6.68 -1 6 C-0.625 2.875 -0.625 2.875 0 0 Z " fill="#33C7F3" transform="translate(332,311)"/>
<path d="M0 0 C2 3 2 3 1.7578125 5.26171875 C1.54898438 6.06222656 1.34015625 6.86273438 1.125 7.6875 C0.92132813 8.49574219 0.71765625 9.30398438 0.5078125 10.13671875 C0.25644531 11.05904297 0.25644531 11.05904297 0 12 C-0.99 11.67 -1.98 11.34 -3 11 C-3 9.02 -3 7.04 -3 5 C-2.01 4.67 -1.02 4.34 0 4 C0 2.68 0 1.36 0 0 Z " fill="#DBE2E3" transform="translate(238,292)"/>
<path d="M0 0 C-0.33 1.65 -0.66 3.3 -1 5 C-3.375 4.6875 -3.375 4.6875 -6 4 C-6.66 3.01 -7.32 2.02 -8 1 C-4.93251126 -0.86240388 -3.40254489 -1.2151946 0 0 Z " fill="#BBBEBF" transform="translate(298,266)"/>
<path d="M0 0 C0.66 0 1.32 0 2 0 C2 2.31 2 4.62 2 7 C5.465 6.505 5.465 6.505 9 6 C6.61426621 7.89213369 4.92824652 9.02391783 2 10 C0.39644899 6.49223216 -0.22036864 3.85645121 0 0 Z " fill="#388BAE" transform="translate(303,344)"/>
<path d="M0 0 C4.75 1.875 4.75 1.875 7 3 C7.33 2.34 7.66 1.68 8 1 C9.5625 3.375 9.5625 3.375 11 6 C10.67 6.66 10.34 7.32 10 8 C8.51714758 7.04737966 7.03881799 6.08771595 5.5625 5.125 C4.73878906 4.59132813 3.91507812 4.05765625 3.06640625 3.5078125 C1 2 1 2 0 0 Z " fill="#2181AE" transform="translate(282,288)"/>
<path d="M0 0 C2 3 2 3 1.7578125 5.48046875 C1.54898438 6.37378906 1.34015625 7.26710938 1.125 8.1875 C0.92132813 9.08855469 0.71765625 9.98960937 0.5078125 10.91796875 C0.25644531 11.94857422 0.25644531 11.94857422 0 13 C-0.66 13 -1.32 13 -2 13 C-1.85966889 11.02043559 -1.7125877 9.04134859 -1.5625 7.0625 C-1.48128906 5.96035156 -1.40007812 4.85820312 -1.31640625 3.72265625 C-1 1 -1 1 0 0 Z " fill="#DAECED" transform="translate(246,256)"/>
<path d="M0 0 C-1.78953185 0.83790789 -3.58169695 1.67019396 -5.375 2.5 C-6.87160156 3.19609375 -6.87160156 3.19609375 -8.3984375 3.90625 C-11 5 -11 5 -13 5 C-13 4.34 -13 3.68 -13 3 C-12.34 3 -11.68 3 -11 3 C-11 2.34 -11 1.68 -11 1 C-3.375 -1.125 -3.375 -1.125 0 0 Z " fill="#2B91B5" transform="translate(327,344)"/>
<path d="M0 0 C2 2 2 2 2.1953125 3.9453125 C2.13020833 5.96354167 2.06510417 7.98177083 2 10 C0.68 10.33 -0.64 10.66 -2 11 C-1.34 7.37 -0.68 3.74 0 0 Z " fill="#2C96BD" transform="translate(338,328)"/>
<path d="M0 0 C0.66 0 1.32 0 2 0 C2.05410687 1.77049689 2.09284119 3.54146849 2.125 5.3125 C2.14820313 6.29863281 2.17140625 7.28476563 2.1953125 8.30078125 C2 11 2 11 0 14 C-0.66 13.67 -1.32 13.34 -2 13 C-1.67 11.35 -1.34 9.7 -1 8 C-0.34 8 0.32 8 1 8 C0.67 5.36 0.34 2.72 0 0 Z " fill="#4F7487" transform="translate(332,236)"/>
<path d="M0 0 C0 0.99 0 1.98 0 3 C-1.64453125 4.421875 -1.64453125 4.421875 -3.8125 5.75 C-4.52019531 6.19859375 -5.22789062 6.6471875 -5.95703125 7.109375 C-8 8 -8 8 -11 7 C-10.34 7 -9.68 7 -9 7 C-9 6.34 -9 5.68 -9 5 C-6.03 3.35 -3.06 1.7 0 0 Z " fill="#318BB4" transform="translate(323,257)"/>
<path d="M0 0 C0 0.99 0 1.98 0 3 C0.04125 4.175625 0.0825 5.35125 0.125 6.5625 C0 10 0 10 -2 12 C-2.77418743 8.61292998 -3.37550085 5.47338282 -3 2 C-2.01 1.34 -1.02 0.68 0 0 Z " fill="#71A9C5" transform="translate(286,255)"/>
<path d="M0 0 C2.64 0 5.28 0 8 0 C7.67 0.99 7.34 1.98 7 3 C5.02 3 3.04 3 1 3 C0.67 3.66 0.34 4.32 0 5 C-0.66 5 -1.32 5 -2 5 C-1.34 3.35 -0.68 1.7 0 0 Z " fill="#A5BAC1" transform="translate(287,255)"/>
<path d="M0 0 C3.73884332 2.65654657 5.64978174 4.58110387 7 9 C6.01 9 5.02 9 4 9 C4 8.01 4 7.02 4 6 C2.68 5.67 1.36 5.34 0 5 C0 3.33333333 0 1.66666667 0 0 Z " fill="#CBE3E6" transform="translate(240,194)"/>
<path d="M0 0 C2.64465038 3.1254959 3.84414715 6.08788267 5 10 C4.01 10.33 3.02 10.66 2 11 C0.80712589 7.12315913 0 4.08378077 0 0 Z " fill="#44CFEC" transform="translate(338,301)"/>
<path d="M0 0 C0.66 0 1.32 0 2 0 C3.25390625 1.6796875 3.25390625 1.6796875 4.5625 3.875 C4.99691406 4.59429687 5.43132812 5.31359375 5.87890625 6.0546875 C6.62444953 7.34834796 7.33225871 8.66451742 8 10 C7.01 10 6.02 10 5 10 C5 9.34 5 8.68 5 8 C3.68 7.67 2.36 7.34 1 7 C1.33 6.34 1.66 5.68 2 5 C1.10636395 2.39068734 1.10636395 2.39068734 0 0 Z " fill="#1C75AA" transform="translate(277,270)"/>
<path d="M0 0 C1.32 0.33 2.64 0.66 4 1 C3.39816251 3.02045442 2.72693904 5.02111039 2 7 C1.01 7.495 1.01 7.495 0 8 C0 5.36 0 2.72 0 0 Z " fill="#208EC0" transform="translate(297,313)"/>
<path d="M0 0 C0 1.65 0 3.3 0 5 C-1.65 5.66 -3.3 6.32 -5 7 C-4.625 4.0625 -4.625 4.0625 -4 1 C-2 0 -2 0 0 0 Z " fill="#ADACA8" transform="translate(300,253)"/>
<path d="M0 0 C1.32 0 2.64 0 4 0 C4.66 1.32 5.32 2.64 6 4 C4.02 4.33 2.04 4.66 0 5 C-0.33 4.34 -0.66 3.68 -1 3 C-0.67 2.01 -0.34 1.02 0 0 Z " fill="#9C9A9A" transform="translate(304,249)"/>
<path d="M0 0 C0.99 0.33 1.98 0.66 3 1 C2.67 3.64 2.34 6.28 2 9 C1.34 8.67 0.68 8.34 0 8 C0.33 6.68 0.66 5.36 1 4 C0.01 3.67 -0.98 3.34 -2 3 C-1.34 2.01 -0.68 1.02 0 0 Z " fill="#4E7485" transform="translate(328,229)"/>
<path d="M0 0 C0.66 0.33 1.32 0.66 2 1 C1.67 2.65 1.34 4.3 1 6 C0.34 6 -0.32 6 -1 6 C-1.33 6.99 -1.66 7.98 -2 9 C-2.33 7.02 -2.66 5.04 -3 3 C-2.01 3 -1.02 3 0 3 C0 2.01 0 1.02 0 0 Z " fill="#208DB7" transform="translate(279,290)"/>
<path d="M0 0 C0.66 0 1.32 0 2 0 C1.125 3.875 1.125 3.875 0 5 C-1.99958364 5.04080783 -4.00045254 5.04254356 -6 5 C-5.195625 4.360625 -4.39125 3.72125 -3.5625 3.0625 C-1.7249496 1.59396498 -1.7249496 1.59396498 0 0 Z " fill="#738C96" transform="translate(316,240)"/>
<path d="M0 0 C0.33 0.66 0.66 1.32 1 2 C-0.65 3.65 -2.3 5.3 -4 7 C-4 5.35 -4 3.7 -4 2 C-2.68 1.34 -1.36 0.68 0 0 Z " fill="#6A7485" transform="translate(330,247)"/>
<path d="M0 0 C1.98 0 3.96 0 6 0 C5.67 2.31 5.34 4.62 5 7 C2.47411298 4.63707344 1.11179163 3.33537489 0 0 Z " fill="#308BB4" transform="translate(250,200)"/>
<path d="M0 0 C0.66 0 1.32 0 2 0 C2.05399736 1.45792884 2.09279177 2.91642712 2.125 4.375 C2.14820313 5.18710938 2.17140625 5.99921875 2.1953125 6.8359375 C2 9 2 9 0 11 C0 7.33333333 0 3.66666667 0 0 Z " fill="#2090BA" transform="translate(298,195)"/>
<path d="M0 0 C0.66 0.33 1.32 0.66 2 1 C0.29374499 3.78388975 -0.47626739 4.85384206 -3.6875 5.75 C-4.8321875 5.87375 -4.8321875 5.87375 -6 6 C-6 5.34 -6 4.68 -6 4 C-4.03852126 2.61061923 -2.03833424 1.2739589 0 0 Z " fill="#748894" transform="translate(322,248)"/>
</svg>
